<svg width="20" height="18" viewBox="0 0 20 18" fill="none" xmlns="http://www.w3.org/2000/svg">
<path d="M1 12.6736C1 10.5421 1.94821 8.49789 3.63604 6.99067C5.32386 5.48346 7.61305 4.63672 9.99999 4.63672C12.3869 4.63672 14.6761 5.48346 16.3639 6.99067C18.0518 8.49789 19 10.5421 19 12.6736" stroke="#000001" stroke-width="2" stroke-linecap="round" stroke-linejoin="round"/>
<path d="M4 12.9458C4 11.6341 4.58351 10.3761 5.62218 9.44859C6.66084 8.52107 8.06957 8 9.53846 8C11.0073 8 12.4161 8.52107 13.4547 9.44859C14.4934 10.3761 15.0769 11.6341 15.0769 12.9458" stroke="#000001" stroke-width="2" stroke-linecap="round" stroke-linejoin="round"/>
<path d="M7.9231 12.6735C7.9231 12.1816 8.14191 11.7099 8.53141 11.3621C8.92091 11.0142 9.44918 10.8188 10 10.8188C10.5509 10.8188 11.0791 11.0142 11.4686 11.3621C11.8581 11.7099 12.0769 12.1816 12.0769 12.6735" stroke="#000001" stroke-width="2" stroke-linecap="round" stroke-linejoin="round"/>
</svg>
