<svg width="120" height="20" viewBox="0 0 120 20" fill="none" xmlns="http://www.w3.org/2000/svg">
<path d="M9.4022 2.8778C9.59427 2.48869 9.69031 2.29413 9.82068 2.23197C9.93411 2.17789 10.0659 2.17789 10.1793 2.23197C10.3097 2.29413 10.4057 2.48869 10.5978 2.8778L12.42 6.56944C12.4767 6.68432 12.5051 6.74176 12.5465 6.78635C12.5832 6.82584 12.6272 6.85783 12.6761 6.88056C12.7313 6.90623 12.7947 6.91549 12.9214 6.93402L16.9975 7.5298C17.4267 7.59253 17.6413 7.6239 17.7406 7.72874C17.8271 7.81995 17.8677 7.94529 17.8512 8.06985C17.8323 8.21302 17.677 8.36436 17.3662 8.66702L14.4179 11.5387C14.326 11.6282 14.28 11.673 14.2503 11.7263C14.2241 11.7734 14.2072 11.8252 14.2008 11.8788C14.1934 11.9393 14.2043 12.0025 14.2259 12.129L14.9216 16.1851C14.995 16.6129 15.0317 16.8269 14.9627 16.9538C14.9028 17.0642 14.7961 17.1417 14.6725 17.1646C14.5305 17.1909 14.3384 17.0899 13.9542 16.8879L10.3103 14.9716C10.1968 14.9119 10.14 14.882 10.0802 14.8703C10.0272 14.8599 9.97277 14.8599 9.91982 14.8703C9.86001 14.882 9.80324 14.9119 9.6897 14.9716L6.04576 16.8879C5.66159 17.0899 5.4695 17.1909 5.32747 17.1646C5.20389 17.1417 5.09726 17.0642 5.03727 16.9538C4.96832 16.8269 5.00501 16.6129 5.07839 16.1851L5.77406 12.129C5.79575 12.0025 5.80659 11.9393 5.79926 11.8788C5.79276 11.8252 5.77592 11.7734 5.74966 11.7263C5.72001 11.673 5.67405 11.6282 5.58214 11.5387L2.63379 8.66702C2.32304 8.36436 2.16767 8.21302 2.14876 8.06985C2.13231 7.94529 2.17295 7.81995 2.25937 7.72874C2.35869 7.6239 2.5733 7.59253 3.00253 7.5298L7.07858 6.93402C7.20534 6.91549 7.26872 6.90623 7.32392 6.88056C7.37279 6.85783 7.41679 6.82584 7.45348 6.78635C7.49491 6.74176 7.52326 6.68432 7.57997 6.56944L9.4022 2.8778Z" fill="#F3CD00" stroke="#F4CD01" stroke-width="0.5" stroke-linecap="round" stroke-linejoin="round"/>
<path d="M34.4022 2.8778C34.5943 2.48869 34.6903 2.29413 34.8207 2.23197C34.9341 2.17789 35.0659 2.17789 35.1793 2.23197C35.3097 2.29413 35.4057 2.48869 35.5978 2.8778L37.42 6.56944C37.4767 6.68432 37.5051 6.74176 37.5465 6.78635C37.5832 6.82584 37.6272 6.85783 37.6761 6.88056C37.7313 6.90623 37.7947 6.91549 37.9214 6.93402L41.9975 7.5298C42.4267 7.59253 42.6413 7.6239 42.7406 7.72874C42.8271 7.81995 42.8677 7.94529 42.8512 8.06985C42.8323 8.21302 42.677 8.36436 42.3662 8.66702L39.4179 11.5387C39.326 11.6282 39.28 11.673 39.2503 11.7263C39.2241 11.7734 39.2072 11.8252 39.2008 11.8788C39.1934 11.9393 39.2043 12.0025 39.2259 12.129L39.9216 16.1851C39.995 16.6129 40.0317 16.8269 39.9627 16.9538C39.9028 17.0642 39.7961 17.1417 39.6725 17.1646C39.5305 17.1909 39.3384 17.0899 38.9542 16.8879L35.3103 14.9716C35.1968 14.9119 35.14 14.882 35.0802 14.8703C35.0272 14.8599 34.9728 14.8599 34.9198 14.8703C34.86 14.882 34.8032 14.9119 34.6897 14.9716L31.0458 16.8879C30.6616 17.0899 30.4695 17.1909 30.3275 17.1646C30.2039 17.1417 30.0973 17.0642 30.0373 16.9538C29.9683 16.8269 30.005 16.6129 30.0784 16.1851L30.7741 12.129C30.7957 12.0025 30.8066 11.9393 30.7993 11.8788C30.7928 11.8252 30.7759 11.7734 30.7497 11.7263C30.72 11.673 30.6741 11.6282 30.5821 11.5387L27.6338 8.66702C27.323 8.36436 27.1677 8.21302 27.1488 8.06985C27.1323 7.94529 27.173 7.81995 27.2594 7.72874C27.3587 7.6239 27.5733 7.59253 28.0025 7.5298L32.0786 6.93402C32.2053 6.91549 32.2687 6.90623 32.3239 6.88056C32.3728 6.85783 32.4168 6.82584 32.4535 6.78635C32.4949 6.74176 32.5233 6.68432 32.58 6.56944L34.4022 2.8778Z" fill="#F3CD00" stroke="#F4CD01" stroke-width="0.5" stroke-linecap="round" stroke-linejoin="round"/>
<path d="M59.4022 2.8778C59.5943 2.48869 59.6903 2.29413 59.8207 2.23197C59.9341 2.17789 60.0659 2.17789 60.1793 2.23197C60.3097 2.29413 60.4057 2.48869 60.5978 2.8778L62.42 6.56944C62.4767 6.68432 62.5051 6.74176 62.5465 6.78635C62.5832 6.82584 62.6272 6.85783 62.6761 6.88056C62.7313 6.90623 62.7947 6.91549 62.9214 6.93402L66.9975 7.5298C67.4267 7.59253 67.6413 7.6239 67.7406 7.72874C67.8271 7.81995 67.8677 7.94529 67.8512 8.06985C67.8323 8.21302 67.677 8.36436 67.3662 8.66702L64.4179 11.5387C64.326 11.6282 64.28 11.673 64.2503 11.7263C64.2241 11.7734 64.2072 11.8252 64.2008 11.8788C64.1934 11.9393 64.2043 12.0025 64.2259 12.129L64.9216 16.1851C64.995 16.6129 65.0317 16.8269 64.9627 16.9538C64.9028 17.0642 64.7961 17.1417 64.6725 17.1646C64.5305 17.1909 64.3384 17.0899 63.9542 16.8879L60.3103 14.9716C60.1968 14.9119 60.14 14.882 60.0802 14.8703C60.0272 14.8599 59.9728 14.8599 59.9198 14.8703C59.86 14.882 59.8032 14.9119 59.6897 14.9716L56.0458 16.8879C55.6616 17.0899 55.4695 17.1909 55.3275 17.1646C55.2039 17.1417 55.0973 17.0642 55.0373 16.9538C54.9683 16.8269 55.005 16.6129 55.0784 16.1851L55.7741 12.129C55.7957 12.0025 55.8066 11.9393 55.7993 11.8788C55.7928 11.8252 55.7759 11.7734 55.7497 11.7263C55.72 11.673 55.6741 11.6282 55.5821 11.5387L52.6338 8.66702C52.323 8.36436 52.1677 8.21302 52.1488 8.06985C52.1323 7.94529 52.173 7.81995 52.2594 7.72874C52.3587 7.6239 52.5733 7.59253 53.0025 7.5298L57.0786 6.93402C57.2053 6.91549 57.2687 6.90623 57.3239 6.88056C57.3728 6.85783 57.4168 6.82584 57.4535 6.78635C57.4949 6.74176 57.5233 6.68432 57.58 6.56944L59.4022 2.8778Z" fill="#F3CD00" stroke="#F4CD01" stroke-width="0.5" stroke-linecap="round" stroke-linejoin="round"/>
<path d="M84.4022 2.8778C84.5943 2.48869 84.6903 2.29413 84.8207 2.23197C84.9341 2.17789 85.0659 2.17789 85.1793 2.23197C85.3097 2.29413 85.4057 2.48869 85.5978 2.8778L87.42 6.56944C87.4767 6.68432 87.5051 6.74176 87.5465 6.78635C87.5832 6.82584 87.6272 6.85783 87.6761 6.88056C87.7313 6.90623 87.7947 6.91549 87.9214 6.93402L91.9975 7.5298C92.4267 7.59253 92.6413 7.6239 92.7406 7.72874C92.8271 7.81995 92.8677 7.94529 92.8512 8.06985C92.8323 8.21302 92.677 8.36436 92.3662 8.66702L89.4179 11.5387C89.326 11.6282 89.28 11.673 89.2503 11.7263C89.2241 11.7734 89.2072 11.8252 89.2008 11.8788C89.1934 11.9393 89.2043 12.0025 89.2259 12.129L89.9216 16.1851C89.995 16.6129 90.0317 16.8269 89.9627 16.9538C89.9028 17.0642 89.7961 17.1417 89.6725 17.1646C89.5305 17.1909 89.3384 17.0899 88.9542 16.8879L85.3103 14.9716C85.1968 14.9119 85.14 14.882 85.0802 14.8703C85.0272 14.8599 84.9728 14.8599 84.9198 14.8703C84.86 14.882 84.8032 14.9119 84.6897 14.9716L81.0458 16.8879C80.6616 17.0899 80.4695 17.1909 80.3275 17.1646C80.2039 17.1417 80.0973 17.0642 80.0373 16.9538C79.9683 16.8269 80.005 16.6129 80.0784 16.1851L80.7741 12.129C80.7957 12.0025 80.8066 11.9393 80.7993 11.8788C80.7928 11.8252 80.7759 11.7734 80.7497 11.7263C80.72 11.673 80.6741 11.6282 80.5821 11.5387L77.6338 8.66702C77.323 8.36436 77.1677 8.21302 77.1488 8.06985C77.1323 7.94529 77.173 7.81995 77.2594 7.72874C77.3587 7.6239 77.5733 7.59253 78.0025 7.5298L82.0786 6.93402C82.2053 6.91549 82.2687 6.90623 82.3239 6.88056C82.3728 6.85783 82.4168 6.82584 82.4535 6.78635C82.4949 6.74176 82.5233 6.68432 82.58 6.56944L84.4022 2.8778Z" fill="#F3CD00" stroke="#F4CD01" stroke-width="0.5" stroke-linecap="round" stroke-linejoin="round"/>
<path d="M109.402 2.8778C109.594 2.48869 109.69 2.29413 109.821 2.23197C109.934 2.17789 110.066 2.17789 110.179 2.23197C110.31 2.29413 110.406 2.48869 110.598 2.8778L112.42 6.56944C112.477 6.68432 112.505 6.74176 112.547 6.78635C112.583 6.82584 112.627 6.85783 112.676 6.88056C112.731 6.90623 112.795 6.91549 112.921 6.93402L116.997 7.5298C117.427 7.59253 117.641 7.6239 117.741 7.72874C117.827 7.81995 117.868 7.94529 117.851 8.06985C117.832 8.21302 117.677 8.36436 117.366 8.66702L114.418 11.5387C114.326 11.6282 114.28 11.673 114.25 11.7263C114.224 11.7734 114.207 11.8252 114.201 11.8788C114.193 11.9393 114.204 12.0025 114.226 12.129L114.922 16.1851C114.995 16.6129 115.032 16.8269 114.963 16.9538C114.903 17.0642 114.796 17.1417 114.673 17.1646C114.531 17.1909 114.338 17.0899 113.954 16.8879L110.31 14.9716C110.197 14.9119 110.14 14.882 110.08 14.8703C110.027 14.8599 109.973 14.8599 109.92 14.8703C109.86 14.882 109.803 14.9119 109.69 14.9716L106.046 16.8879C105.662 17.0899 105.469 17.1909 105.327 17.1646C105.204 17.1417 105.097 17.0642 105.037 16.9538C104.968 16.8269 105.005 16.6129 105.078 16.1851L105.774 12.129C105.796 12.0025 105.807 11.9393 105.799 11.8788C105.793 11.8252 105.776 11.7734 105.75 11.7263C105.72 11.673 105.674 11.6282 105.582 11.5387L102.634 8.66702C102.323 8.36436 102.168 8.21302 102.149 8.06985C102.132 7.94529 102.173 7.81995 102.259 7.72874C102.359 7.6239 102.573 7.59253 103.003 7.5298L107.079 6.93402C107.205 6.91549 107.269 6.90623 107.324 6.88056C107.373 6.85783 107.417 6.82584 107.453 6.78635C107.495 6.74176 107.523 6.68432 107.58 6.56944L109.402 2.8778Z" fill="#F3CD00" stroke="#F4CD01" stroke-width="0.5" stroke-linecap="round" stroke-linejoin="round"/>
</svg>
