<svg width="28" height="28" viewBox="0 0 28 28" fill="none" xmlns="http://www.w3.org/2000/svg">
<g clip-path="url(#clip0_112_37)">
<path d="M15 18.0001L9 19.0801L10 13.0001L21.46 1.58012C21.6459 1.39267 21.8671 1.24388 22.1108 1.14234C22.3546 1.0408 22.616 0.988525 22.88 0.988525C23.144 0.988525 23.4054 1.0408 23.6492 1.14234C23.8929 1.24388 24.1141 1.39267 24.3 1.58012L26.42 3.70012C26.6075 3.88605 26.7562 4.10725 26.8578 4.35097C26.9593 4.59469 27.0116 4.8561 27.0116 5.12012C27.0116 5.38415 26.9593 5.64556 26.8578 5.88928C26.7562 6.13299 26.6075 6.3542 26.42 6.54012L15 18.0001Z" stroke="#000001" stroke-width="2" stroke-linecap="round" stroke-linejoin="round"/>
<path d="M24 19V25C24 25.5304 23.7893 26.0391 23.4142 26.4142C23.0391 26.7893 22.5304 27 22 27H3C2.46957 27 1.96086 26.7893 1.58579 26.4142C1.21071 26.0391 1 25.5304 1 25V6C1 5.46957 1.21071 4.96086 1.58579 4.58579C1.96086 4.21071 2.46957 4 3 4H9" stroke="#000001" stroke-width="2" stroke-linecap="round" stroke-linejoin="round"/>
</g>
<defs>
<clipPath id="clip0_112_37">
<rect width="28" height="28" fill="white"/>
</clipPath>
</defs>
</svg>
