<svg width="168" height="24" viewBox="0 0 168 24" fill="none" xmlns="http://www.w3.org/2000/svg">
<path d="M11.2826 3.4533C11.5131 2.98637 11.6284 2.7529 11.7848 2.6783C11.9209 2.6134 12.0791 2.6134 12.2152 2.6783C12.3716 2.7529 12.4869 2.98637 12.7174 3.4533L14.904 7.88327C14.9721 8.02112 15.0061 8.09005 15.0558 8.14356C15.0999 8.19095 15.1527 8.22934 15.2113 8.25661C15.2775 8.28741 15.3536 8.29853 15.5057 8.32076L20.397 9.03569C20.912 9.11098 21.1696 9.14862 21.2888 9.27443C21.3925 9.38388 21.4412 9.53429 21.4215 9.68376C21.3988 9.85557 21.2124 10.0372 20.8395 10.4004L17.3014 13.8464C17.1911 13.9538 17.136 14.0075 17.1004 14.0715C17.0689 14.128 17.0487 14.1902 17.0409 14.2545C17.0321 14.3271 17.0451 14.403 17.0711 14.5547L17.9059 19.4221C17.994 19.9355 18.038 20.1922 17.9553 20.3445C17.8833 20.477 17.7553 20.57 17.607 20.5975C17.4366 20.6291 17.2061 20.5078 16.7451 20.2654L12.3724 17.9658C12.2361 17.8942 12.168 17.8583 12.0962 17.8443C12.0327 17.8318 11.9673 17.8318 11.9038 17.8443C11.832 17.8583 11.7639 17.8942 11.6276 17.9658L7.25491 20.2654C6.7939 20.5078 6.5634 20.6291 6.39296 20.5975C6.24467 20.57 6.11671 20.477 6.04472 20.3445C5.96199 20.1922 6.00601 19.9355 6.09406 19.4221L6.92887 14.5547C6.9549 14.403 6.96791 14.3271 6.9591 14.2545C6.95131 14.1902 6.9311 14.128 6.89959 14.0715C6.86401 14.0075 6.80886 13.9538 6.69857 13.8464L3.16054 10.4004C2.78765 10.0372 2.6012 9.85557 2.57851 9.68376C2.55877 9.53429 2.60754 9.38388 2.71124 9.27443C2.83042 9.14862 3.08796 9.11098 3.60303 9.03569L8.4943 8.32076C8.64641 8.29853 8.72247 8.28741 8.7887 8.25661C8.84735 8.22934 8.90015 8.19095 8.94417 8.14356C8.99389 8.09005 9.02791 8.02112 9.09596 7.88327L11.2826 3.4533Z" fill="#F3CD00" stroke="#F3CD00" stroke-width="2" stroke-linecap="round" stroke-linejoin="round"/>
<path d="M47.2826 3.4533C47.5131 2.98637 47.6284 2.7529 47.7848 2.6783C47.9209 2.6134 48.0791 2.6134 48.2152 2.6783C48.3716 2.7529 48.4869 2.98637 48.7174 3.4533L50.904 7.88327C50.9721 8.02112 51.0061 8.09005 51.0558 8.14356C51.0999 8.19095 51.1527 8.22934 51.2113 8.25661C51.2775 8.28741 51.3536 8.29853 51.5057 8.32076L56.397 9.03569C56.912 9.11098 57.1696 9.14862 57.2888 9.27443C57.3925 9.38388 57.4412 9.53429 57.4215 9.68376C57.3988 9.85557 57.2124 10.0372 56.8395 10.4004L53.3014 13.8464C53.1911 13.9538 53.136 14.0075 53.1004 14.0715C53.0689 14.128 53.0487 14.1902 53.0409 14.2545C53.0321 14.3271 53.0451 14.403 53.0711 14.5547L53.9059 19.4221C53.994 19.9355 54.038 20.1922 53.9553 20.3445C53.8833 20.477 53.7553 20.57 53.607 20.5975C53.4366 20.6291 53.2061 20.5078 52.7451 20.2654L48.3724 17.9658C48.2361 17.8942 48.168 17.8583 48.0962 17.8443C48.0327 17.8318 47.9673 17.8318 47.9038 17.8443C47.832 17.8583 47.7639 17.8942 47.6276 17.9658L43.2549 20.2654C42.7939 20.5078 42.5634 20.6291 42.393 20.5975C42.2447 20.57 42.1167 20.477 42.0447 20.3445C41.962 20.1922 42.006 19.9355 42.0941 19.4221L42.9289 14.5547C42.9549 14.403 42.9679 14.3271 42.9591 14.2545C42.9513 14.1902 42.9311 14.128 42.8996 14.0715C42.864 14.0075 42.8089 13.9538 42.6986 13.8464L39.1605 10.4004C38.7876 10.0372 38.6012 9.85557 38.5785 9.68376C38.5588 9.53429 38.6075 9.38388 38.7112 9.27443C38.8304 9.14862 39.088 9.11098 39.603 9.03569L44.4943 8.32076C44.6464 8.29853 44.7225 8.28741 44.7887 8.25661C44.8473 8.22934 44.9001 8.19095 44.9442 8.14356C44.9939 8.09005 45.0279 8.02112 45.096 7.88327L47.2826 3.4533Z" fill="#F3CD00" stroke="#F3CD00" stroke-width="2" stroke-linecap="round" stroke-linejoin="round"/>
<path d="M83.2826 3.4533C83.5131 2.98637 83.6284 2.7529 83.7848 2.6783C83.9209 2.6134 84.0791 2.6134 84.2152 2.6783C84.3716 2.7529 84.4869 2.98637 84.7174 3.4533L86.904 7.88327C86.9721 8.02112 87.0061 8.09005 87.0558 8.14356C87.0999 8.19095 87.1527 8.22934 87.2113 8.25661C87.2775 8.28741 87.3536 8.29853 87.5057 8.32076L92.397 9.03569C92.912 9.11098 93.1696 9.14862 93.2888 9.27443C93.3925 9.38388 93.4412 9.53429 93.4215 9.68376C93.3988 9.85557 93.2124 10.0372 92.8395 10.4004L89.3014 13.8464C89.1911 13.9538 89.136 14.0075 89.1004 14.0715C89.0689 14.128 89.0487 14.1902 89.0409 14.2545C89.0321 14.3271 89.0451 14.403 89.0711 14.5547L89.9059 19.4221C89.994 19.9355 90.038 20.1922 89.9553 20.3445C89.8833 20.477 89.7553 20.57 89.607 20.5975C89.4366 20.6291 89.2061 20.5078 88.7451 20.2654L84.3724 17.9658C84.2361 17.8942 84.168 17.8583 84.0962 17.8443C84.0327 17.8318 83.9673 17.8318 83.9038 17.8443C83.832 17.8583 83.7639 17.8942 83.6276 17.9658L79.2549 20.2654C78.7939 20.5078 78.5634 20.6291 78.393 20.5975C78.2447 20.57 78.1167 20.477 78.0447 20.3445C77.962 20.1922 78.006 19.9355 78.0941 19.4221L78.9289 14.5547C78.9549 14.403 78.9679 14.3271 78.9591 14.2545C78.9513 14.1902 78.9311 14.128 78.8996 14.0715C78.864 14.0075 78.8089 13.9538 78.6986 13.8464L75.1605 10.4004C74.7876 10.0372 74.6012 9.85557 74.5785 9.68376C74.5588 9.53429 74.6075 9.38388 74.7112 9.27443C74.8304 9.14862 75.088 9.11098 75.603 9.03569L80.4943 8.32076C80.6464 8.29853 80.7225 8.28741 80.7887 8.25661C80.8473 8.22934 80.9001 8.19095 80.9442 8.14356C80.9939 8.09005 81.0279 8.02112 81.096 7.88327L83.2826 3.4533Z" fill="#F3CD00" stroke="#F3CD00" stroke-width="2" stroke-linecap="round" stroke-linejoin="round"/>
<path d="M119.283 3.4533C119.513 2.98637 119.628 2.7529 119.785 2.6783C119.921 2.6134 120.079 2.6134 120.215 2.6783C120.372 2.7529 120.487 2.98637 120.717 3.4533L122.904 7.88327C122.972 8.02112 123.006 8.09005 123.056 8.14356C123.1 8.19095 123.153 8.22934 123.211 8.25661C123.278 8.28741 123.354 8.29853 123.506 8.32076L128.397 9.03569C128.912 9.11098 129.17 9.14862 129.289 9.27443C129.392 9.38388 129.441 9.53429 129.421 9.68376C129.399 9.85557 129.212 10.0372 128.839 10.4004L125.301 13.8464C125.191 13.9538 125.136 14.0075 125.1 14.0715C125.069 14.128 125.049 14.1902 125.041 14.2545C125.032 14.3271 125.045 14.403 125.071 14.5547L125.906 19.4221C125.994 19.9355 126.038 20.1922 125.955 20.3445C125.883 20.477 125.755 20.57 125.607 20.5975C125.437 20.6291 125.206 20.5078 124.745 20.2654L120.372 17.9658C120.236 17.8942 120.168 17.8583 120.096 17.8443C120.033 17.8318 119.967 17.8318 119.904 17.8443C119.832 17.8583 119.764 17.8942 119.628 17.9658L115.255 20.2654C114.794 20.5078 114.563 20.6291 114.393 20.5975C114.245 20.57 114.117 20.477 114.045 20.3445C113.962 20.1922 114.006 19.9355 114.094 19.4221L114.929 14.5547C114.955 14.403 114.968 14.3271 114.959 14.2545C114.951 14.1902 114.931 14.128 114.9 14.0715C114.864 14.0075 114.809 13.9538 114.699 13.8464L111.161 10.4004C110.788 10.0372 110.601 9.85557 110.579 9.68376C110.559 9.53429 110.608 9.38388 110.711 9.27443C110.83 9.14862 111.088 9.11098 111.603 9.03569L116.494 8.32076C116.646 8.29853 116.722 8.28741 116.789 8.25661C116.847 8.22934 116.9 8.19095 116.944 8.14356C116.994 8.09005 117.028 8.02112 117.096 7.88327L119.283 3.4533Z" fill="#F3CD00" stroke="#F3CD00" stroke-width="2" stroke-linecap="round" stroke-linejoin="round"/>
<path d="M155.283 3.4533C155.513 2.98637 155.628 2.7529 155.785 2.6783C155.921 2.6134 156.079 2.6134 156.215 2.6783C156.372 2.7529 156.487 2.98637 156.717 3.4533L158.904 7.88327C158.972 8.02112 159.006 8.09005 159.056 8.14356C159.1 8.19095 159.153 8.22934 159.211 8.25661C159.278 8.28741 159.354 8.29853 159.506 8.32076L164.397 9.03569C164.912 9.11098 165.17 9.14862 165.289 9.27443C165.392 9.38388 165.441 9.53429 165.421 9.68376C165.399 9.85557 165.212 10.0372 164.839 10.4004L161.301 13.8464C161.191 13.9538 161.136 14.0075 161.1 14.0715C161.069 14.128 161.049 14.1902 161.041 14.2545C161.032 14.3271 161.045 14.403 161.071 14.5547L161.906 19.4221C161.994 19.9355 162.038 20.1922 161.955 20.3445C161.883 20.477 161.755 20.57 161.607 20.5975C161.437 20.6291 161.206 20.5078 160.745 20.2654L156.372 17.9658C156.236 17.8942 156.168 17.8583 156.096 17.8443C156.033 17.8318 155.967 17.8318 155.904 17.8443C155.832 17.8583 155.764 17.8942 155.628 17.9658L151.255 20.2654C150.794 20.5078 150.563 20.6291 150.393 20.5975C150.245 20.57 150.117 20.477 150.045 20.3445C149.962 20.1922 150.006 19.9355 150.094 19.4221L150.929 14.5547C150.955 14.403 150.968 14.3271 150.959 14.2545C150.951 14.1902 150.931 14.128 150.9 14.0715C150.864 14.0075 150.809 13.9538 150.699 13.8464L147.161 10.4004C146.788 10.0372 146.601 9.85557 146.579 9.68376C146.559 9.53429 146.608 9.38388 146.711 9.27443C146.83 9.14862 147.088 9.11098 147.603 9.03569L152.494 8.32076C152.646 8.29853 152.722 8.28741 152.789 8.25661C152.847 8.22934 152.9 8.19095 152.944 8.14356C152.994 8.09005 153.028 8.02112 153.096 7.88327L155.283 3.4533Z" fill="#F3CD00" stroke="#F3CD00" stroke-width="2" stroke-linecap="round" stroke-linejoin="round"/>
</svg>
