<svg width="20" height="20" viewBox="0 0 20 20" fill="none" xmlns="http://www.w3.org/2000/svg">
<path d="M17.6154 8H2.38462C1.61991 8 1 8.61561 1 9.375V17.625C1 18.3844 1.61991 19 2.38462 19H17.6154C18.3801 19 19 18.0406 19 17.2812V9.375C19 8.61561 18.3801 8 17.6154 8Z" stroke="#000001" stroke-width="2" stroke-linecap="round" stroke-linejoin="round"/>
<path d="M4.28571 4.99997V2.14282" stroke="#000001" stroke-width="2" stroke-linecap="round" stroke-linejoin="round"/>
<path d="M10 4.99997V2.14282" stroke="#000001" stroke-width="2" stroke-linecap="round" stroke-linejoin="round"/>
<path d="M15.7143 4.99997V2.14282" stroke="#000001" stroke-width="2" stroke-linecap="round" stroke-linejoin="round"/>
<path d="M18 15H17.3846C16.7318 15 16.1057 14.6839 15.644 14.1213C15.1824 13.5587 14.9231 12.7956 14.9231 12C14.9231 12.7956 14.6637 13.5587 14.2021 14.1213C13.7405 14.6839 13.1144 15 12.4615 15C11.8087 15 11.1826 14.6839 10.721 14.1213C10.2593 13.5587 10 12.7956 10 12C10 12.7956 9.74066 13.5587 9.27903 14.1213C8.8174 14.6839 8.1913 15 7.53846 15C6.88562 15 6.25952 14.6839 5.79789 14.1213C5.33626 13.5587 5.07692 12.7956 5.07692 12C5.07692 12.7956 4.81758 13.5587 4.35596 14.1213C3.89433 14.6839 3.26823 15 2.61538 15H2" stroke="#000001" stroke-width="1.5" stroke-linecap="round" stroke-linejoin="round"/>
</svg>
