<svg width="20" height="20" viewBox="0 0 20 20" fill="none" xmlns="http://www.w3.org/2000/svg">
<g clip-path="url(#clip0_70_31)">
<path d="M5.71429 0.714233H14.2857C15.6118 0.714233 16.8836 1.24102 17.8213 2.1787C18.7589 3.11638 19.2857 4.38815 19.2857 5.71423C19.2857 6.09311 19.1352 6.45648 18.8673 6.72439C18.5994 6.99229 18.236 7.1428 17.8572 7.1428H2.14287C1.76399 7.1428 1.40062 6.99229 1.13271 6.72439C0.864804 6.45648 0.714294 6.09311 0.714294 5.71423C0.714294 4.38815 1.24108 3.11638 2.17876 2.1787C3.11644 1.24102 4.38821 0.714233 5.71429 0.714233V0.714233Z" stroke="#000001" stroke-width="2" stroke-linecap="round" stroke-linejoin="round"/>
<path d="M0.714294 10.7142H19.2857" stroke="#000001" stroke-width="2" stroke-linecap="round" stroke-linejoin="round"/>
<path d="M18.5714 14.2856H10L7.85715 16.4285L3.57144 14.2856H1.42858C1.23914 14.2856 1.05746 14.3609 0.923504 14.4949C0.789549 14.6288 0.714294 14.8105 0.714294 14.9999V14.9999C0.714294 16.1366 1.16582 17.2267 1.96955 18.0304C2.77328 18.8341 3.86337 19.2856 5.00001 19.2856H15C16.1367 19.2856 17.2267 18.8341 18.0305 18.0304C18.8342 17.2267 19.2857 16.1366 19.2857 14.9999C19.2857 14.8105 19.2105 14.6288 19.0765 14.4949C18.9426 14.3609 18.7609 14.2856 18.5714 14.2856Z" stroke="#000001" stroke-width="2" stroke-linecap="round" stroke-linejoin="round"/>
</g>
<defs>
<clipPath id="clip0_70_31">
<rect width="20" height="20" fill="white"/>
</clipPath>
</defs>
</svg>
