<svg width="20" height="20" viewBox="0 0 20 20" fill="none" xmlns="http://www.w3.org/2000/svg">
<path d="M9.85714 7.15821C12.1391 5.52296 14.9113 4.71651 17.7143 4.8725V9.87249C17.7143 11.9563 16.8865 13.9548 15.413 15.4283C13.9395 16.9018 11.941 17.7296 9.85714 17.7296C7.7733 17.7296 5.7748 16.9018 4.3013 15.4283C2.8278 13.9548 2 11.9563 2 9.87249V4.8725C2 4.8725 11.3714 3.74392 15.6571 15.1725" stroke="#000001" stroke-width="2" stroke-linecap="round" stroke-linejoin="round"/>
<path d="M14.3143 5.24384C14.082 4.31715 13.5468 3.49463 12.7936 2.90692C12.0404 2.31921 11.1125 2 10.1571 2C9.20179 2 8.27384 2.31921 7.52065 2.90692C6.76747 3.49463 6.23225 4.31715 6 5.24384" stroke="#000001" stroke-width="2" stroke-linecap="round" stroke-linejoin="round"/>
</svg>
