<svg width="28" height="28" viewBox="0 0 28 28" fill="none" xmlns="http://www.w3.org/2000/svg">
<g clip-path="url(#clip0_112_43)">
<path d="M9 1H3C1.89543 1 1 1.89543 1 3V25C1 26.1046 1.89543 27 3 27H25C26.1046 27 27 26.1046 27 25V12.5" stroke="#000001" stroke-width="2" stroke-linecap="round" stroke-linejoin="round"/>
<path d="M11 11C11 10.4067 11.1759 9.82664 11.5056 9.33329C11.8352 8.83994 12.3038 8.45543 12.8519 8.22836C13.4001 8.0013 14.0033 7.94189 14.5853 8.05765C15.1672 8.1734 15.7018 8.45912 16.1213 8.87868C16.5409 9.29824 16.8266 9.83279 16.9424 10.4147C17.0581 10.9967 16.9987 11.5999 16.7716 12.1481C16.5446 12.6962 16.1601 13.1648 15.6667 13.4944C15.1734 13.8241 14.5933 14 14 14V16" stroke="#000001" stroke-width="2" stroke-linecap="round" stroke-linejoin="round"/>
<path d="M14 21C13.7239 21 13.5 20.7761 13.5 20.5C13.5 20.2239 13.7239 20 14 20" stroke="#000001" stroke-width="2" stroke-linecap="round" stroke-linejoin="round"/>
<path d="M14 21C14.2761 21 14.5 20.7761 14.5 20.5C14.5 20.2239 14.2761 20 14 20" stroke="#000001" stroke-width="2" stroke-linecap="round" stroke-linejoin="round"/>
</g>
<defs>
<clipPath id="clip0_112_43">
<rect width="28" height="28" fill="white"/>
</clipPath>
</defs>
</svg>
