<svg width="19" height="19" viewBox="0 0 19 19" fill="none" xmlns="http://www.w3.org/2000/svg">
<path d="M16.2857 11.5358C17.41 11.5358 18.3214 10.6244 18.3214 9.50007C18.3214 8.37578 17.41 7.46436 16.2857 7.46436C15.1614 7.46436 14.25 8.37578 14.25 9.50007C14.25 10.6244 15.1614 11.5358 16.2857 11.5358Z" fill="black"/>
<path d="M9.5 11.5358C10.6243 11.5358 11.5357 10.6244 11.5357 9.50007C11.5357 8.37578 10.6243 7.46436 9.5 7.46436C8.37571 7.46436 7.46429 8.37578 7.46429 9.50007C7.46429 10.6244 8.37571 11.5358 9.5 11.5358Z" fill="black"/>
<path d="M2.71429 11.5358C3.83858 11.5358 4.75 10.6244 4.75 9.50007C4.75 8.37578 3.83858 7.46436 2.71429 7.46436C1.58999 7.46436 0.678574 8.37578 0.678574 9.50007C0.678574 10.6244 1.58999 11.5358 2.71429 11.5358Z" fill="black"/>
</svg>
