<svg width="120" height="20" viewBox="0 0 120 20" fill="none" xmlns="http://www.w3.org/2000/svg">
<path d="M9.40219 2.8778C9.59427 2.48869 9.6903 2.29413 9.82067 2.23197C9.93411 2.17789 10.0659 2.17789 10.1793 2.23197C10.3097 2.29413 10.4057 2.48869 10.5978 2.8778L12.42 6.56944C12.4767 6.68432 12.5051 6.74175 12.5465 6.78635C12.5832 6.82584 12.6272 6.85783 12.6761 6.88056C12.7313 6.90622 12.7947 6.91549 12.9214 6.93402L16.9975 7.52979C17.4267 7.59253 17.6413 7.6239 17.7406 7.72873C17.827 7.81995 17.8677 7.94528 17.8512 8.06985C17.8323 8.21302 17.677 8.36435 17.3662 8.66702L14.4179 11.5387C14.3259 11.6282 14.28 11.673 14.2503 11.7263C14.2241 11.7734 14.2072 11.8252 14.2007 11.8788C14.1934 11.9393 14.2042 12.0025 14.2259 12.129L14.9216 16.1851C14.995 16.6129 15.0317 16.8268 14.9627 16.9538C14.9027 17.0642 14.7961 17.1417 14.6725 17.1646C14.5305 17.1909 14.3384 17.0899 13.9542 16.8879L10.3103 14.9716C10.1968 14.9119 10.14 14.882 10.0802 14.8703C10.0272 14.8599 9.97277 14.8599 9.91981 14.8703C9.86 14.882 9.80324 14.9119 9.6897 14.9716L6.04576 16.8879C5.66158 17.0899 5.4695 17.1909 5.32746 17.1646C5.20389 17.1417 5.09726 17.0642 5.03727 16.9538C4.96832 16.8268 5.00501 16.6129 5.07838 16.1851L5.77406 12.129C5.79575 12.0025 5.80659 11.9393 5.79925 11.8788C5.79276 11.8252 5.77591 11.7734 5.74966 11.7263C5.72001 11.673 5.67405 11.6282 5.58214 11.5387L2.63379 8.66702C2.32304 8.36435 2.16767 8.21302 2.14876 8.06985C2.13231 7.94528 2.17295 7.81995 2.25937 7.72873C2.35869 7.6239 2.5733 7.59253 3.00253 7.52979L7.07858 6.93402C7.20534 6.91549 7.26872 6.90622 7.32392 6.88056C7.37279 6.85783 7.41679 6.82584 7.45347 6.78635C7.49491 6.74175 7.52326 6.68432 7.57996 6.56944L9.40219 2.8778Z" fill="#F3CD00" stroke="#F4CD01" stroke-width="0.5" stroke-linecap="round" stroke-linejoin="round"/>
<path d="M34.4024 2.8778C34.5945 2.48869 34.6905 2.29413 34.8209 2.23197C34.9343 2.17789 35.0661 2.17789 35.1795 2.23197C35.3099 2.29413 35.4059 2.48869 35.598 2.8778L37.4202 6.56944C37.477 6.68432 37.5053 6.74175 37.5467 6.78635C37.5834 6.82584 37.6274 6.85783 37.6763 6.88056C37.7315 6.90622 37.7949 6.91549 37.9216 6.93402L41.9977 7.52979C42.4269 7.59253 42.6415 7.6239 42.7408 7.72873C42.8273 7.81995 42.8679 7.94528 42.8514 8.06985C42.8325 8.21302 42.6772 8.36435 42.3664 8.66702L39.4181 11.5387C39.3262 11.6282 39.2802 11.673 39.2506 11.7263C39.2243 11.7734 39.2075 11.8252 39.201 11.8788C39.1936 11.9393 39.2045 12.0025 39.2262 12.129L39.9218 16.1851C39.9952 16.6129 40.0319 16.8268 39.9629 16.9538C39.903 17.0642 39.7963 17.1417 39.6727 17.1646C39.5307 17.1909 39.3386 17.0899 38.9545 16.8879L35.3105 14.9716C35.197 14.9119 35.1402 14.882 35.0804 14.8703C35.0274 14.8599 34.973 14.8599 34.92 14.8703C34.8602 14.882 34.8034 14.9119 34.6899 14.9716L31.046 16.8879C30.6618 17.0899 30.4697 17.1909 30.3277 17.1646C30.2041 17.1417 30.0975 17.0642 30.0375 16.9538C29.9685 16.8268 30.0052 16.6129 30.0786 16.1851L30.7743 12.129C30.796 12.0025 30.8068 11.9393 30.7995 11.8788C30.793 11.8252 30.7761 11.7734 30.7499 11.7263C30.7202 11.673 30.6743 11.6282 30.5824 11.5387L27.634 8.66702C27.3233 8.36435 27.1679 8.21302 27.149 8.06985C27.1325 7.94528 27.1732 7.81995 27.2596 7.72873C27.3589 7.6239 27.5735 7.59253 28.0027 7.52979L32.0788 6.93402C32.2056 6.91549 32.2689 6.90622 32.3241 6.88056C32.373 6.85783 32.417 6.82584 32.4537 6.78635C32.4951 6.74175 32.5235 6.68432 32.5802 6.56944L34.4024 2.8778Z" fill="#F3CD00" stroke="#F4CD01" stroke-width="0.5" stroke-linecap="round" stroke-linejoin="round"/>
<path d="M59.402 2.8778C59.5941 2.48869 59.6901 2.29413 59.8205 2.23197C59.9339 2.17789 60.0657 2.17789 60.1791 2.23197C60.3095 2.29413 60.4055 2.48869 60.5976 2.8778L62.4198 6.56944C62.4765 6.68432 62.5049 6.74175 62.5463 6.78635C62.583 6.82584 62.627 6.85783 62.6759 6.88056C62.7311 6.90622 62.7944 6.91549 62.9212 6.93402L66.9973 7.52979C67.4265 7.59253 67.6411 7.6239 67.7404 7.72873C67.8268 7.81995 67.8675 7.94528 67.851 8.06985C67.8321 8.21302 67.6767 8.36435 67.366 8.66702L64.4176 11.5387C64.3257 11.6282 64.2798 11.673 64.2501 11.7263C64.2239 11.7734 64.207 11.8252 64.2005 11.8788C64.1932 11.9393 64.204 12.0025 64.2257 12.129L64.9214 16.1851C64.9948 16.6129 65.0315 16.8268 64.9625 16.9538C64.9025 17.0642 64.7959 17.1417 64.6723 17.1646C64.5303 17.1909 64.3382 17.0899 63.954 16.8879L60.3101 14.9716C60.1965 14.9119 60.1398 14.882 60.08 14.8703C60.027 14.8599 59.9726 14.8599 59.9196 14.8703C59.8598 14.882 59.803 14.9119 59.6895 14.9716L56.0455 16.8879C55.6614 17.0899 55.4693 17.1909 55.3273 17.1646C55.2037 17.1417 55.097 17.0642 55.0371 16.9538C54.9681 16.8268 55.0048 16.6129 55.0782 16.1851L55.7738 12.129C55.7955 12.0025 55.8064 11.9393 55.799 11.8788C55.7925 11.8252 55.7757 11.7734 55.7494 11.7263C55.7198 11.673 55.6738 11.6282 55.5819 11.5387L52.6336 8.66702C52.3228 8.36435 52.1675 8.21302 52.1485 8.06985C52.1321 7.94528 52.1727 7.81995 52.2592 7.72873C52.3585 7.6239 52.5731 7.59253 53.0023 7.52979L57.0784 6.93402C57.2051 6.91549 57.2685 6.90622 57.3237 6.88056C57.3726 6.85783 57.4166 6.82584 57.4533 6.78635C57.4947 6.74175 57.523 6.68432 57.5798 6.56944L59.402 2.8778Z" fill="#F3CD00" stroke="#F4CD01" stroke-width="0.5" stroke-linecap="round" stroke-linejoin="round"/>
<path d="M84.4022 2.8778C84.5943 2.48869 84.6903 2.29413 84.8207 2.23197C84.9341 2.17789 85.0659 2.17789 85.1793 2.23197C85.3097 2.29413 85.4057 2.48869 85.5978 2.8778L87.42 6.56944C87.4767 6.68432 87.5051 6.74175 87.5465 6.78635C87.5832 6.82584 87.6272 6.85783 87.6761 6.88056C87.7313 6.90622 87.7947 6.91549 87.9214 6.93402L91.9975 7.52979C92.4267 7.59253 92.6413 7.6239 92.7406 7.72873C92.827 7.81995 92.8677 7.94528 92.8512 8.06985C92.8323 8.21302 92.677 8.36435 92.3662 8.66702L89.4179 11.5387C89.3259 11.6282 89.28 11.673 89.2503 11.7263C89.2241 11.7734 89.2072 11.8252 89.2007 11.8788C89.1934 11.9393 89.2042 12.0025 89.2259 12.129L89.9216 16.1851C89.995 16.6129 90.0317 16.8268 89.9627 16.9538C89.9027 17.0642 89.7961 17.1417 89.6725 17.1646C89.5305 17.1909 89.3384 17.0899 88.9542 16.8879L85.3103 14.9716C85.1968 14.9119 85.14 14.882 85.0802 14.8703C85.0272 14.8599 84.9728 14.8599 84.9198 14.8703C84.86 14.882 84.8032 14.9119 84.6897 14.9716L81.0458 16.8879C80.6616 17.0899 80.4695 17.1909 80.3275 17.1646C80.2039 17.1417 80.0973 17.0642 80.0373 16.9538C79.9683 16.8268 80.005 16.6129 80.0784 16.1851L80.7741 12.129C80.7957 12.0025 80.8066 11.9393 80.7993 11.8788C80.7928 11.8252 80.7759 11.7734 80.7497 11.7263C80.72 11.673 80.6741 11.6282 80.5821 11.5387L77.6338 8.66702C77.323 8.36435 77.1677 8.21302 77.1488 8.06985C77.1323 7.94528 77.173 7.81995 77.2594 7.72873C77.3587 7.6239 77.5733 7.59253 78.0025 7.52979L82.0786 6.93402C82.2053 6.91549 82.2687 6.90622 82.3239 6.88056C82.3728 6.85783 82.4168 6.82584 82.4535 6.78635C82.4949 6.74175 82.5233 6.68432 82.58 6.56944L84.4022 2.8778Z" fill="#F3CD00" stroke="#F4CD01" stroke-width="0.5" stroke-linecap="round" stroke-linejoin="round"/>
<path d="M109.402 2.8778C109.594 2.48869 109.691 2.29413 109.821 2.23197C109.934 2.17789 110.066 2.17789 110.18 2.23197C110.31 2.29413 110.406 2.48869 110.598 2.8778L112.42 6.56944C112.477 6.68432 112.505 6.74175 112.547 6.78635C112.583 6.82584 112.627 6.85783 112.676 6.88056C112.731 6.90622 112.795 6.91549 112.922 6.93402L116.998 7.52979C117.427 7.59253 117.642 7.6239 117.741 7.72873C117.827 7.81995 117.868 7.94528 117.851 8.06985C117.833 8.21302 117.677 8.36435 117.366 8.66702L114.418 11.5387C114.326 11.6282 114.28 11.673 114.251 11.7263C114.224 11.7734 114.207 11.8252 114.201 11.8788C114.194 11.9393 114.204 12.0025 114.226 12.129L114.922 16.1851C114.995 16.6129 115.032 16.8268 114.963 16.9538C114.903 17.0642 114.796 17.1417 114.673 17.1646C114.531 17.1909 114.339 17.0899 113.954 16.8879L110.311 14.9716C110.197 14.9119 110.14 14.882 110.08 14.8703C110.027 14.8599 109.973 14.8599 109.92 14.8703C109.86 14.882 109.803 14.9119 109.69 14.9716L106.046 16.8879C105.662 17.0899 105.47 17.1909 105.328 17.1646C105.204 17.1417 105.097 17.0642 105.037 16.9538C104.969 16.8268 105.005 16.6129 105.079 16.1851L105.774 12.129C105.796 12.0025 105.807 11.9393 105.799 11.8788C105.793 11.8252 105.776 11.7734 105.75 11.7263C105.72 11.673 105.674 11.6282 105.582 11.5387L102.634 8.66702C102.323 8.36435 102.168 8.21302 102.149 8.06985C102.133 7.94528 102.173 7.81995 102.26 7.72873C102.359 7.6239 102.574 7.59253 103.003 7.52979L107.079 6.93402C107.206 6.91549 107.269 6.90622 107.324 6.88056C107.373 6.85783 107.417 6.82584 107.454 6.78635C107.495 6.74175 107.523 6.68432 107.58 6.56944L109.402 2.8778Z" stroke="#F4CD01" stroke-linecap="round" stroke-linejoin="round"/>
</svg>
