<svg width="22" height="23" viewBox="0 0 22 23" fill="none" xmlns="http://www.w3.org/2000/svg">
<path d="M19.2496 7.83333V3.25M19.2496 3.25H14.6663M19.2496 3.25L13.7497 8.75M9.37443 13.2078C8.27298 12.1064 7.40326 10.8609 6.76526 9.53213C6.71039 9.41783 6.68295 9.36068 6.66187 9.28836C6.58695 9.03137 6.64076 8.7158 6.79661 8.49816C6.84046 8.43691 6.89285 8.38452 6.99764 8.27973C7.31811 7.95926 7.47835 7.79902 7.58311 7.63789C7.97819 7.03024 7.97819 6.24688 7.58311 5.63923C7.47835 5.4781 7.31811 5.31786 6.99764 4.99739L6.81901 4.81876C6.33185 4.3316 6.08828 4.08803 5.82668 3.95571C5.30641 3.69256 4.692 3.69256 4.17174 3.95571C3.91014 4.08803 3.66656 4.3316 3.17941 4.81876L3.03491 4.96326C2.54942 5.44875 2.30668 5.69149 2.12128 6.02152C1.91556 6.38773 1.76765 6.95652 1.7689 7.37655C1.77002 7.75509 1.84345 8.01379 1.99031 8.5312C2.77953 11.3118 4.26863 13.9356 6.45762 16.1246C8.6466 18.3136 11.2704 19.8027 14.051 20.5919C14.5684 20.7388 14.8272 20.8122 15.2057 20.8133C15.6257 20.8146 16.1945 20.6667 16.5607 20.461C16.8908 20.2756 17.1335 20.0328 17.619 19.5473L17.7635 19.4028C18.2506 18.9157 18.4942 18.6721 18.6265 18.4105C18.8897 17.8902 18.8897 17.2758 18.6265 16.7556C18.4942 16.494 18.2506 16.2504 17.7635 15.7632L17.5849 15.5846C17.2644 15.2641 17.1041 15.1039 16.943 14.9991C16.3354 14.6041 15.552 14.6041 14.9443 14.9991C14.7832 15.1039 14.623 15.2641 14.3025 15.5846C14.1977 15.6894 14.1453 15.7418 14.0841 15.7856C13.8664 15.9415 13.5509 15.9953 13.2939 15.9204C13.2216 15.8993 13.1644 15.8719 13.0501 15.817C11.7213 15.179 10.4759 14.3093 9.37443 13.2078Z" stroke="white" stroke-width="2" stroke-linecap="round" stroke-linejoin="round"/>
</svg>
